<?xml version="1.0"?><svg width="1250" height="1250" xmlns="http://www.w3.org/2000/svg">
 <g>
  <title>Layer 1</title>
  <g id="layer1">
   <path d="m575.977295,245.413712c4.531738,-92.14563 117.8255,-226.587547 137.463196,-228.098139c19.63739,-1.510564 -42.296509,212.992258 -58.912903,228.098139c-16.616333,15.105789 -77.039734,4.531693 -78.550293,0z" id="path3205" stroke-miterlimit="4" stroke-linejoin="round" stroke-width="14" stroke="#000000" fill-rule="evenodd" fill="#784421"/>
   <path d="m713.447632,17.307638c-1.558228,0.11986 -3.783447,1.126026 -6.420044,2.832355c-2.881287,39.78908 -69.206055,200.198278 -85.064697,211.85935c-8.947449,6.579208 -27.940613,5.863724 -44.939819,2.832382c-0.465393,3.565979 -0.868591,7.117676 -1.038574,10.574005c1.510681,4.531738 61.933899,15.105835 78.550354,0c16.616333,-15.105835 78.550293,-229.608657 58.912781,-228.098093z" id="path3257" stroke-miterlimit="4" stroke-linejoin="round" stroke-width="14" fill-rule="evenodd" fill-opacity="0.313725" fill="#000000"/>
   <path d="m958.977905,584.672668a372.770386,372.770386 0 1 1-745.540619,0a372.770386,372.770386 0 1 1745.540619,0z" id="path2383" stroke-miterlimit="4" stroke-linejoin="round" stroke-linecap="round" stroke-width="14" stroke="#000000" fill-rule="nonzero" fill="#a05a2c"/>
   <path d="m889.49115,525.759949a288.177643,288.177643 0 1 1-576.355347,0a288.177643,288.177643 0 1 1576.355347,0z" id="path3276" stroke-miterlimit="4" stroke-linejoin="round" stroke-linecap="round" stroke-width="14" fill-rule="nonzero" fill-opacity="0.313725" fill="#000000"/>
   <path d="m914.21051,407.560486c9.674438,33.157013 14.824524,68.246429 14.824524,104.514282c0,205.771118 -166.969421,372.737549 -372.737549,372.737549c-141.466248,0 -264.647461,-78.949768 -327.796539,-195.150269c45.387604,154.684692 188.421509,267.752991 357.723663,267.752991c205.771057,0 372.737549,-166.969421 372.737549,-372.737427c0,-64.079285 -16.232056,-124.42804 -44.751648,-177.117126l0,0z" id="path3339" stroke-miterlimit="4" stroke-linejoin="round" stroke-linecap="round" stroke-width="14" fill-rule="nonzero" fill-opacity="0.313725" fill="#000000"/>
   <path d="m840.109924,946.996155c0,65.090149 -52.826843,62.762268 -117.917175,62.762268c-65.090149,0 -117.917053,2.327881 -117.917053,-62.762268c0,-65.090515 52.826904,-117.917297 117.917053,-117.917297c65.090332,0 117.917175,52.826782 117.917175,117.917297z" id="path3235" stroke-miterlimit="4" stroke-linejoin="round" stroke-linecap="round" stroke-width="14" stroke="#000000" fill-rule="nonzero" fill="#a05a2c"/>
   <path d="m568.139771,946.996155c0,65.090149 -52.826965,62.762268 -117.917175,62.762268c-36.193298,0 -68.59491,0.71991 -90.230988,-9.831604c-17.274384,-8.424316 -27.686188,-24.033569 -27.686188,-52.930664c0,-65.090515 52.826813,-117.917297 117.917175,-117.917297c65.09021,0 117.917175,52.826782 117.917175,117.917297z" id="path3238" stroke-miterlimit="4" stroke-linejoin="round" stroke-linecap="round" stroke-width="14" stroke="#000000" fill-rule="nonzero" fill="#a05a2c"/>
   <g id="g3263">
    <path d="m493.599976,1000.248962c10.582062,-34.234009 -1.511658,-74.173706 -1.511658,-74.173706" id="path3265" stroke-miterlimit="4" stroke-linecap="round" stroke-width="14" stroke="#000000" fill-rule="evenodd" fill-opacity="0.75" fill="none"/>
    <path d="m439.142273,1007.856567c-12.970093,-55.154846 1.852844,-98.898438 1.852844,-98.898438" id="path3267" stroke-miterlimit="4" stroke-linecap="round" stroke-width="14" stroke="#000000" fill-rule="evenodd" fill-opacity="0.75" fill="none"/>
    <path d="m383.993073,1002.151062c-26.626587,-41.841858 -3.803711,-76.075806 -3.803711,-76.075806" id="path3269" stroke-miterlimit="4" stroke-linecap="round" stroke-width="14" stroke="#000000" fill-rule="evenodd" fill-opacity="0.75" fill="none"/>
   </g>
   <path d="m874.385193,484.974121a288.177643,288.177643 0 1 1-576.355255,0a288.177643,288.177643 0 1 1576.355255,0z" id="path2418" stroke-miterlimit="4" stroke-linejoin="round" stroke-linecap="round" stroke-width="14" stroke="#000000" fill-rule="nonzero" fill="#a05a2c"/>
   <path d="m849.211365,367.007721c4.609253,20.450806 7.08075,41.702057 7.08075,63.53891c0,159.074158 -129.164124,288.23822 -288.238159,288.23822c-117.149353,0 -217.985077,-70.062927 -263.030365,-170.507202c28.867462,128.66272 143.8237,224.888184 281.157379,224.888184c159.074036,0 288.238159,-129.164063 288.238159,-288.238251c0,-42.029968 -9.010742,-81.902893 -25.207764,-117.919861z" id="path3251" stroke-miterlimit="4" stroke-linejoin="round" stroke-linecap="round" stroke-width="14" fill-rule="nonzero" fill-opacity="0.313725" fill="#000000"/>
   <path d="m573.747375,430.560669a82.732201,82.732201 0 1 1-165.464355,0a82.732201,82.732201 0 1 1165.464355,0z" id="path2387" stroke-miterlimit="4" stroke-linejoin="round" stroke-linecap="round" stroke-width="14" stroke="#000000" fill-rule="nonzero" fill="#ffffff"/>
   <path d="m765.838135,430.560669a82.732201,82.732201 0 1 1-165.464294,0a82.732201,82.732201 0 1 1165.464294,0z" id="path2391" stroke-miterlimit="4" stroke-linejoin="round" stroke-linecap="round" stroke-width="14" stroke="#000000" fill-rule="nonzero" fill="#ffffff"/>
   <path d="m541.415283,440.070099a25.675499,25.675499 0 1 1-51.350952,0a25.675499,25.675499 0 1 151.350952,0z" id="path2393" stroke-miterlimit="4" stroke-linejoin="round" stroke-linecap="round" stroke-width="14" fill-rule="nonzero" fill="#000000"/>
   <path d="m682.15509,440.070099a25.675499,25.675499 0 1 1-51.351013,0a25.675499,25.675499 0 1 151.351013,0z" id="path2395" stroke-miterlimit="4" stroke-linejoin="round" stroke-linecap="round" stroke-width="14" fill-rule="nonzero" fill="#000000"/>
   <path d="m662.79126,625.266052c0,41.618164 -45.578247,75.395325 -75.73053,75.395325c-32.482727,0 -75.730804,-33.777161 -75.730804,-75.395325c0,-41.618286 33.927338,-52.196777 75.730804,-52.196777c41.803162,0 75.73053,10.578491 75.73053,52.196777z" id="path2397" stroke-miterlimit="4" stroke-linejoin="round" stroke-linecap="round" stroke-width="14" fill-rule="nonzero" fill="#000000"/>
   <path d="m784.112427,846.669495c14.268677,19.576904 22.753296,43.708191 22.753296,69.770081c0,37.662903 -17.629089,71.1745 -45.034363,92.900818c45.562988,-1.729614 78.26709,-11.15918 78.26709,-62.311523c0,-42.392212 -22.376526,-79.576538 -55.986023,-100.359375z" id="path3327" stroke-miterlimit="4" stroke-linejoin="round" stroke-linecap="round" stroke-width="14" fill-rule="nonzero" fill-opacity="0.313725" fill="#000000"/>
   <g id="g2410">
    <path d="m682.074646,1000.248962c-10.581848,-34.234009 1.511841,-74.173706 1.511841,-74.173706" id="path2412" stroke-miterlimit="4" stroke-linecap="round" stroke-width="14" stroke="#000000" fill-rule="evenodd" fill-opacity="0.75" fill="none"/>
    <path d="m736.532532,1007.856567c12.969971,-55.154846 -1.852844,-98.898438 -1.852844,-98.898438" id="path2414" stroke-miterlimit="4" stroke-linecap="round" stroke-width="14" stroke="#000000" fill-rule="evenodd" fill-opacity="0.75" fill="none"/>
    <path d="m791.681763,1002.151062c26.626465,-41.841858 3.803772,-76.075806 3.803772,-76.075806" id="path2416" stroke-miterlimit="4" stroke-linecap="round" stroke-width="14" stroke="#000000" fill-rule="evenodd" fill-opacity="0.75" fill="none"/>
   </g>
   <path d="m510.69693,846.669495c14.268463,19.576904 22.753143,43.708191 22.753143,69.770081c0,37.662903 -17.628906,71.1745 -45.034271,92.900818c45.562897,-1.729614 78.266998,-11.15918 78.266998,-62.311523c0,-42.392212 -22.376465,-79.576538 -55.98587,-100.359375z" id="path3332" stroke-miterlimit="4" stroke-linejoin="round" stroke-linecap="round" stroke-width="14" fill-rule="nonzero" fill-opacity="0.313725" fill="#000000"/>
   <path d="m620.025391,888.116089c-10.007751,17.3255 -15.766602,37.479431 -15.766602,58.912781c0,52.885864 34.902588,61.217468 82.893127,62.500488c-47.673401,-19.873352 -71.917847,-67.092651 -67.126526,-121.413269z" id="path3349" stroke-miterlimit="4" stroke-linejoin="round" stroke-linecap="round" stroke-width="14" fill-rule="nonzero" fill-opacity="0.313725" fill="#000000"/>
   <path d="m383.261169,277.135864c-165.922699,-11.704193 -252.356384,188.223328 -229.697601,247.136047c18.421188,47.895081 120.20575,96.203064 116.10025,52.276184c-13.323059,-142.550049 165.359344,-295.760803 113.597351,-299.412231z" id="path3201" stroke-miterlimit="4" stroke-linejoin="round" stroke-width="14" stroke="#000000" fill-rule="evenodd" fill="#784421"/>
   <path d="m790.859924,277.135864c165.922913,-11.704193 252.356506,188.223328 229.697754,247.136047c-18.421143,47.895081 -120.205627,96.203064 -116.100281,52.276184c13.322937,-142.550049 -165.359436,-295.760803 -113.597473,-299.412231z" id="path3203" stroke-miterlimit="4" stroke-linejoin="round" stroke-width="14" stroke="#000000" fill-rule="evenodd" fill="#784421"/>
   <path d="m806.159729,276.655914c153.773926,31.102417 195.348145,233.857025 162.387634,285.594635c-7.305298,11.467224 -20.408569,21.71991 -35.404175,29.928467c30.467468,-7.042725 75.733032,-37.482666 87.424988,-67.881897c21.950623,-57.071625 -58.511658,-246.499695 -214.408447,-247.641205z" id="path3262" stroke-miterlimit="4" stroke-linejoin="round" stroke-width="14" fill-rule="evenodd" fill-opacity="0.313725" fill="#000000"/>
   <path d="m481.454834,1136.089111l219.842407,-47.614136c0,0 37.535461,60.282715 81.02771,25.934448c43.492432,-34.348022 -17.343811,-68.464111 -17.343811,-68.464111c0,0 61.079651,-33.337585 1.040222,-63.255981c-60.03949,-29.918152 -80.075867,47.815552 -80.075867,47.815552l-213.040894,37.625366c0,0 -55.41391,-74.284546 -96.117706,-25.244751c-40.703735,49.039917 15.138092,79.754883 15.138092,79.754883c0,0 -44.794373,38.944214 12.349487,65.063477c57.143829,26.118774 74.177765,-44.521851 77.180359,-51.614746z" id="path3288" stroke-miterlimit="4" stroke-linejoin="round" stroke-width="14" stroke="#000000" fill-rule="evenodd" fill="#e3dbdb"/>
   <path d="m440.86731,1037.605469c5.974762,5.696167 11.59079,11.530884 17.058716,16.461914c0.712646,-0.12561 1.420563,-0.279053 2.133362,-0.404907c-5.256836,-5.256958 -11.778137,-11.086548 -19.192078,-16.057007zm329.09436,-52.854675c1.007263,1.392395 1.920166,2.890381 2.75293,4.378296c6.087036,18.187927 -19.318604,33.093567 -28.723633,43.212585c3.40564,6.676147 11.762085,11.103882 18.480591,16.864868c5.782898,-3.338257 57.613159,-36.789612 7.490112,-64.45575zm-404.911102,108.567078c2.747375,6.734741 6.969025,12.459106 11.294952,16.97937c5.742889,-6.822998 -4.750305,-11.488892 -11.294952,-16.97937zm405.258026,-43.959473c1.333984,1.550049 2.480042,3.28479 3.375183,5.125c18.231018,23.287354 -12.012634,51.899902 -35.88031,50.438599c-23.430969,-0.51062 -32.751526,-23.154785 -47.500854,-37.399048c-73.289795,15.864868 -151.826538,32.725952 -225.116455,48.590698c-7.483124,12.23938 -10.103027,28.188965 -20.089172,39.464966c-14.955353,23.682983 -48.128662,21.236328 -68.134735,5.052612c-0.397919,-0.213867 -0.723602,-0.523071 -1.103577,-0.751709c2.044189,9.44873 9.81424,19.334595 28.445557,27.850464c57.143799,26.119019 74.162903,-44.550415 77.165405,-51.643799l225.116669,-48.590698c-0.000122,0 32.293213,61.285645 75.785645,26.937256c35.337341,-27.908081 1.7547,-55.647705 -12.063354,-65.074341z" id="path3300" stroke-miterlimit="4" stroke-linejoin="round" stroke-width="14" fill-rule="evenodd" fill-opacity="0.313725" fill="#000000"/>
  </g>
 </g>
</svg>